{"title":"The Book Thief (2013) DD5.1 Eng NL Subs NTSC-DVDSCR-NLU002","uid":9471167,"size":4690494089,"categoryP":"video","categoryS":"movies_dvdr","magnet":"?xt=urn:btih:5fa13d76cb3454edae10fba8e9746b2019d18a07&amp;dn=The+Book+Thief+%282013%29+DD5.1+Eng+NL+Subs+NTSC-DVDSCR-NLU002&amp;tr=udp%3A%2F%2Ftracker.openbittorrent.com%3A80&amp;tr=udp%3A%2F%2Fopen.demonii.com%3A1337&amp;tr=udp%3A%2F%2Ftracker.coppersurfer.tk%3A6969&amp;tr=udp%3A%2F%2Fexodus.desync.com%3A6969","seeders":12,"leechers":0,"uploader":"NLUPPER002","files":-1,"time":1389575510,"description":"The Book Thief (2013) DD5.1 Eng NL Subs NTSC-DVDSCR-NLU002\n.\n[IMG]http://imagizer.imageshack.us/v2/800x600q90/836/7itf.jpg[/IMG]\n.\nPG-13  -  131 min  -  Drama | War  -  27 November 2013 (USA) \nRated PG-13 for some violence and intense depiction of thematic material\n. &lt;a href=&quot;\nhttp://www.imdb.com/title/tt0816442/&quot; rel=&quot;nofollow&quot; target=&quot;_NEW&quot;&gt;\nhttp://www.imdb.com/title/tt0816442/&lt;/a&gt;\n. &lt;a href=&quot;\nhttp://www.moviemeter.nl/film/93347&quot; rel=&quot;nofollow&quot; target=&quot;_NEW&quot;&gt;\nhttp://www.moviemeter.nl/film/93347&lt;/a&gt;\n.\nPLOT\n.\nWhile subjected to the horrors of World War II Germany,\nyoung Liesel finds solace by stealing books and sharing them with others.\nUnder the stairs in her home, a Jewish refugee is being sheltered by her adoptive parents. \n.\nSource: The.Book.Thief.2013.DVDSCR.X264.AC-3.H3LL2P4Y\nFormat: DVD5\nVideo: NTSC  USA/Japan\nAudio: English DD5.1\nSubtitles: Dutch, English\nNL Vertaling: JVdS \nMenu: Yes Custom by NLU002\nCharter selection: Yes Motion added 15 Charpters Motion\n.\n[b]Notes vertaling: Niet klagen over de vertaling als er betere was had ik die wel genomen.\nDeze vertaler is een vertaler die een vertaalmachine gebruikt waarschijnlijk google.[/b]\n.\nEnjoy\n.\nOverall bit rate                         : 4 765 Kbps\nWriting library                          : encoded by TMPGEnc Authoring Works 5 Version. 5.1.3.57\n\nVideo\nID                                       : 224 (0xE0)\nFormat                                   : MPEG Video\nFormat version                           : Version 2\nFormat profile                           : Main@Main\nFormat settings, BVOP                    : Yes\nFormat settings, Matrix                  : Custom\nFormat settings, GOP                     : Variable\nDuration                                 : 30mn 2s\nBit rate mode                            : Variable\nBit rate                                 : 4 222 Kbps\nMaximum bit rate                         : 7 960 Kbps\nWidth                                    : 720 pixels\nHeight                                   : 480 pixels\nDisplay aspect ratio                     : 16:9\nFrame rate                               : 23.976 fps\nStandard                                 : NTSC\nColor space                              : YUV\nChroma subsampling                       : 4:2:0\nBit depth                                : 8 bits\nScan type                                : Progressive\nScan order                               : 2:3 Pulldown\nCompression mode                         : Lossy\nBits/(Pixel*Frame)                       : 0.510\nTime code of first frame                 : 00:00:00:00\nTime code source                         : Group of pictures header\nStream size                              : 907 MiB (89%)\nSource encoded stream size               : encoded by TMPGEnc Authoring Works 5 Version. 5.1.3.57\nWriting library                          : TMPGEnc Authoring Works 5 Version. 5.1.3.57\nColor primaries                          : BT.601 NTSC\nTransfer characteristics                 : BT.601\nMatrix coefficients                      : BT.601\n\nAudio\nID                                       : 189 (0xBD)-128 (0x80)\nFormat                                   : AC-3\nFormat/Info                              : Audio Coding 3\nMode extension                           : CM (complete main)\nFormat settings, Endianness              : Big\nMuxing mode                              : DVD-Video\nDuration                                 : 30mn 2s\nBit rate mode                            : Constant\nBit rate                                 : 448 Kbps\nChannel(s)                               : 6 channels\nChannel positions                        : Front: L C R, Side: L R, LFE\nSampling rate                            : 48.0 KHz\nBit depth                                : 16 bits\nCompression mode                         : Lossy\nStream size                              : 96.3 MiB (9%)\n.\n\n","torrent":{"xt":"urn:btih:5fa13d76cb3454edae10fba8e9746b2019d18a07","amp;dn":"The+Book+Thief+%282013%29+DD5.1+Eng+NL+Subs+NTSC-DVDSCR-NLU002","amp;tr":["udp%3A%2F%2Ftracker.openbittorrent.com%3A80","udp%3A%2F%2Fopen.demonii.com%3A1337","udp%3A%2F%2Ftracker.coppersurfer.tk%3A6969","udp%3A%2F%2Fexodus.desync.com%3A6969"],"infoHash":"5fa13d76cb3454edae10fba8e9746b2019d18a07","infoHashBuffer":{"type":"Buffer","data":[95,161,61,118,203,52,84,237,174,16,251,168,233,116,107,32,25,209,138,7]},"announce":[],"urlList":[]}}